<svg width="146" height="24" viewBox="0 0 146 24" fill="none" xmlns="http://www.w3.org/2000/svg">
<path d="M3.65 18.175V3.8C3.05 3.46667 2.19167 3.23333 1.075 3.1L1.2 2.1H8.6L8.45 3.1C7.41667 3.21667 6.60833 3.45 6.025 3.8V17.775C6.025 19.3417 5.575 20.5667 4.675 21.45C3.79167 22.35 2.50833 23.025 0.825 23.475L0.525 22.65C1.475 22.2333 2.23333 21.6833 2.8 21C3.36667 20.3167 3.65 19.375 3.65 18.175ZM11.2338 14.85V9.6C11.2338 8.93333 11.0921 8.48333 10.8088 8.25C10.5421 8 10.0588 7.85833 9.35879 7.825L9.43379 7.025C10.1171 6.90833 11.3088 6.6 13.0088 6.1L13.5338 6.375V15.15C13.5338 17.0333 14.3088 17.975 15.8588 17.975C16.3255 17.975 16.8171 17.8083 17.3338 17.475C17.8505 17.125 18.3088 16.5833 18.7088 15.85V9.6C18.7088 8.93333 18.5671 8.48333 18.2838 8.25C18.0171 8 17.5338 7.85833 16.8338 7.825L16.9088 7.025C17.5921 6.90833 18.7838 6.6 20.4838 6.1L21.0088 6.375V17.35C21.4255 17.6667 22.0505 17.9083 22.8838 18.075L22.7838 19H19.2088L18.9338 17.3C17.9671 18.5667 16.8421 19.2 15.5588 19.2C12.6755 19.2 11.2338 17.75 11.2338 14.85ZM26.4061 4.25C26.4061 3.58333 26.2644 3.13333 25.9811 2.9C25.7144 2.65 25.2311 2.50833 24.5311 2.475L24.6061 1.675C25.2894 1.55833 26.4811 1.25 28.1811 0.75L28.7061 1.025V17.35C29.1561 17.6833 29.7811 17.925 30.5811 18.075L30.4811 19H24.5311L24.6311 18.025C25.3477 17.9083 25.9394 17.6833 26.4061 17.35V4.25ZM34.05 9.6C34.05 8.93333 33.9083 8.48333 33.625 8.25C33.3583 8 32.875 7.85833 32.175 7.825L32.25 7.025C32.9333 6.90833 34.125 6.6 35.825 6.1L36.35 6.375V17.35C36.8 17.6833 37.425 17.925 38.225 18.075L38.125 19H32.175L32.275 18.025C32.9917 17.9083 33.5833 17.6833 34.05 17.35V9.6ZM36.475 2.625C36.475 3.65833 36 4.175 35.05 4.175C34.1167 4.175 33.65 3.65833 33.65 2.625C33.65 1.575 34.1167 1.05 35.05 1.05C36 1.05 36.475 1.575 36.475 2.625ZM43.3957 19.2C42.329 19.2 41.4957 18.9333 40.8957 18.4C40.3124 17.85 40.0207 17.0417 40.0207 15.975C40.0207 14.8917 40.429 14.0167 41.2457 13.35C42.079 12.6833 43.2874 12.2917 44.8707 12.175L46.9957 12.025V9.825C46.9957 8.925 46.8124 8.275 46.4457 7.875C46.0957 7.45833 45.529 7.25 44.7457 7.25C43.329 7.25 42.6207 7.65833 42.6207 8.475C42.6207 8.925 42.8957 9.25833 43.4457 9.475C43.4457 10.325 42.929 10.75 41.8957 10.75C41.429 10.75 41.054 10.6083 40.7707 10.325C40.4874 10.0417 40.3457 9.66667 40.3457 9.2C40.3457 8.26667 40.7374 7.53333 41.5207 7C42.3207 6.45 43.4124 6.175 44.7957 6.175C46.1957 6.175 47.2957 6.5 48.0957 7.15C48.8957 7.78333 49.2957 8.675 49.2957 9.825V17.35C49.7124 17.6667 50.3374 17.9083 51.1707 18.075L51.0707 19H47.3457L47.0707 17.8C46.0874 18.7333 44.8624 19.2 43.3957 19.2ZM42.3957 15.875C42.3957 17.3417 42.9624 18.075 44.0957 18.075C44.9957 18.075 45.9624 17.5583 46.9957 16.525V13.125L44.9707 13.3C44.1707 13.3667 43.5374 13.6333 43.0707 14.1C42.6207 14.5667 42.3957 15.1583 42.3957 15.875ZM61.3893 18.175V3.8C60.7893 3.46667 59.9309 3.23333 58.8143 3.1L58.9393 2.1H66.3393L66.1893 3.1C65.1559 3.21667 64.3476 3.45 63.7643 3.8V17.775C63.7643 19.3417 63.3143 20.5667 62.4143 21.45C61.5309 22.35 60.2476 23.025 58.5643 23.475L58.2643 22.65C59.2143 22.2333 59.9726 21.6833 60.5393 21C61.1059 20.3167 61.3893 19.375 61.3893 18.175ZM69.548 9.6C69.548 8.93333 69.4064 8.48333 69.123 8.25C68.8564 8 68.373 7.85833 67.673 7.825L67.748 7.025C68.4314 6.90833 69.623 6.6 71.323 6.1L71.848 6.375V17.35C72.298 17.6833 72.923 17.925 73.723 18.075L73.623 19H67.673L67.773 18.025C68.4897 17.9083 69.0814 17.6833 69.548 17.35V9.6ZM71.973 2.625C71.973 3.65833 71.498 4.175 70.548 4.175C69.6147 4.175 69.148 3.65833 69.148 2.625C69.148 1.575 69.6147 1.05 70.548 1.05C71.498 1.05 71.973 1.575 71.973 2.625ZM76.9438 9.65C76.9438 8.98333 76.8021 8.53333 76.5188 8.3C76.2521 8.05 75.7688 7.90833 75.0688 7.875L75.1438 7.075C75.5104 7.00833 76.6104 6.70833 78.4438 6.175L78.9188 6.425L79.1188 7.825C79.2521 7.65833 79.4188 7.475 79.6188 7.275C79.8354 7.075 80.2021 6.84167 80.7188 6.575C81.2521 6.30833 81.7854 6.175 82.3188 6.175C83.9354 6.175 85.0854 6.75833 85.7688 7.925C86.9354 6.75833 88.1104 6.175 89.2938 6.175C90.4771 6.175 91.4438 6.5 92.1938 7.15C92.9604 7.8 93.3438 8.825 93.3438 10.225V17.35C93.7604 17.6667 94.3854 17.9083 95.2188 18.075L95.1188 19H89.1938L89.2688 18.075C89.9354 17.975 90.5271 17.7333 91.0438 17.35V10.15C91.0438 8.36667 90.3688 7.475 89.0188 7.475C88.4188 7.475 87.8521 7.7 87.3188 8.15C86.8021 8.58333 86.4604 9.05833 86.2938 9.575V17.35C86.7104 17.6667 87.3354 17.9083 88.1688 18.075L88.0688 19H82.1438L82.2188 18.075C82.8854 17.975 83.4771 17.7333 83.9938 17.35V10.15C83.9938 8.36667 83.3188 7.475 81.9688 7.475C81.3688 7.475 80.8021 7.7 80.2688 8.15C79.7521 8.58333 79.4104 9.05833 79.2438 9.575V17.35C79.6938 17.6833 80.3188 17.925 81.1188 18.075L81.0188 19H75.0688L75.1688 18.025C75.8854 17.9083 76.4771 17.6833 76.9438 17.35V9.65ZM99.1305 12.475V12.875C99.1305 14.9417 99.4055 16.3333 99.9555 17.05C100.472 17.7167 101.314 18.05 102.48 18.05C103.664 18.05 104.672 17.5583 105.505 16.575L106.355 17.425C105.339 18.6083 103.972 19.2 102.255 19.2C100.239 19.2 98.7971 18.6417 97.9305 17.525C97.0805 16.4083 96.6555 14.8083 96.6555 12.725C96.6555 10.6417 97.1221 9.03333 98.0555 7.9C98.9888 6.75 100.339 6.175 102.105 6.175C103.872 6.175 105.105 6.64167 105.805 7.575C106.505 8.50833 106.88 9.9 106.93 11.75L106.38 12.475H99.1305ZM102.055 7.275C100.155 7.275 99.1805 8.675 99.1305 11.475L104.505 11.275C104.505 9.875 104.33 8.85833 103.98 8.225C103.63 7.59167 102.989 7.275 102.055 7.275ZM102.855 1.1C103.039 0.799999 103.289 0.649999 103.605 0.649999C103.939 0.649999 104.197 0.749999 104.38 0.949998C104.58 1.13333 104.68 1.36667 104.68 1.65C104.68 1.93333 104.455 2.25833 104.005 2.625L101.205 4.875L100.605 4.225L102.855 1.1ZM110.464 9.65C110.464 8.98333 110.322 8.53333 110.039 8.3C109.772 8.05 109.289 7.90833 108.589 7.875L108.664 7.075C109.03 7.00833 110.13 6.70833 111.964 6.175L112.439 6.425L112.689 8.1C113.622 6.81667 114.772 6.175 116.139 6.175C117.505 6.175 118.555 6.50833 119.289 7.175C120.022 7.825 120.389 8.73333 120.389 9.9V17.35C120.805 17.6667 121.43 17.9083 122.264 18.075L122.164 19H116.239L116.314 18.075C116.98 17.975 117.572 17.7333 118.089 17.35V10.15C118.089 8.36667 117.322 7.475 115.789 7.475C115.172 7.475 114.58 7.68333 114.014 8.1C113.447 8.51667 113.03 9.05833 112.764 9.725V17.35C113.214 17.6833 113.839 17.925 114.639 18.075L114.539 19H108.589L108.689 18.025C109.405 17.9083 109.997 17.6833 110.464 17.35V9.65ZM126.132 12.475V12.875C126.132 14.9417 126.407 16.3333 126.957 17.05C127.474 17.7167 128.316 18.05 129.482 18.05C130.666 18.05 131.674 17.5583 132.507 16.575L133.357 17.425C132.341 18.6083 130.974 19.2 129.257 19.2C127.241 19.2 125.799 18.6417 124.932 17.525C124.082 16.4083 123.657 14.8083 123.657 12.725C123.657 10.6417 124.124 9.03333 125.057 7.9C125.991 6.75 127.341 6.175 129.107 6.175C130.874 6.175 132.107 6.64167 132.807 7.575C133.507 8.50833 133.882 9.9 133.932 11.75L133.382 12.475H126.132ZM129.057 7.275C127.157 7.275 126.182 8.675 126.132 11.475L131.507 11.275C131.507 9.875 131.332 8.85833 130.982 8.225C130.632 7.59167 129.991 7.275 129.057 7.275ZM136.516 6.3L141.191 6.35C142.841 6.35 144.191 6.325 145.241 6.275L145.491 7.2L138.416 17.75C138.682 17.7667 139.407 17.775 140.591 17.775C141.791 17.775 142.599 17.7667 143.016 17.75C143.499 17.0833 143.857 16.2583 144.091 15.275C144.307 15.225 144.507 15.2 144.691 15.2C144.891 15.2 145.124 15.2167 145.391 15.25L145.216 18.45L144.691 19.075C143.991 19.025 142.716 19 140.866 19L135.941 19.1L135.716 17.975L142.691 7.575C141.691 7.50833 140.841 7.475 140.141 7.475C139.457 7.475 138.824 7.51667 138.241 7.6C137.891 8.05 137.649 8.78333 137.516 9.8C137.266 9.88333 137.007 9.925 136.741 9.925C136.491 9.925 136.274 9.89167 136.091 9.825L135.841 6.85L136.516 6.3Z" fill="black"/>
</svg>
