<svg width="203" height="39" viewBox="0 0 203 39" fill="none" xmlns="http://www.w3.org/2000/svg">
<path d="M12.32 9.918C12.5693 9.88867 12.782 9.962 12.958 10.138C13.134 10.314 13.222 10.5267 13.222 10.776C13.222 11.0253 13.134 11.238 12.958 11.414C12.782 11.5753 12.5693 11.6487 12.32 11.634C12.1733 11.6047 12.012 11.59 11.836 11.59C11.6747 11.5753 11.506 11.5607 11.33 11.546H11.286C11.1833 11.546 11.132 11.6047 11.132 11.722V20.764C11.132 21.9227 10.8827 22.9273 10.384 23.778C9.88533 24.6287 9.24 25.2813 8.448 25.736C7.67067 26.1907 6.85667 26.418 6.006 26.418C4.71533 26.418 3.66667 26.1613 2.86 25.648C2.05333 25.12 1.46667 24.4967 1.1 23.778C0.953333 23.4847 0.843333 23.1767 0.77 22.854C0.696667 22.5167 0.66 22.1867 0.66 21.864C0.66 21.2333 0.792 20.6833 1.056 20.214C1.33467 19.7447 1.738 19.51 2.266 19.51C2.706 19.51 3.036 19.6567 3.256 19.95C3.49067 20.2287 3.608 20.5367 3.608 20.874C3.608 21.1673 3.52 21.446 3.344 21.71C3.18267 21.9593 2.93333 22.1207 2.596 22.194C2.464 22.2233 2.40533 22.2967 2.42 22.414C2.47867 22.7073 2.62533 23.0373 2.86 23.404C3.10933 23.7707 3.49067 24.086 4.004 24.35C4.51733 24.5993 5.18467 24.724 6.006 24.724C6.666 24.724 7.25267 24.548 7.766 24.196C8.27933 23.844 8.68267 23.3747 8.976 22.788C9.284 22.1867 9.438 21.512 9.438 20.764V11.722C9.438 11.6047 9.38667 11.546 9.284 11.546C9.12267 11.546 8.94667 11.5533 8.756 11.568C8.58 11.5827 8.41133 11.6047 8.25 11.634C8.01533 11.6487 7.80267 11.5753 7.612 11.414C7.436 11.238 7.348 11.0253 7.348 10.776C7.348 10.5267 7.436 10.314 7.612 10.138C7.80267 9.962 8.01533 9.88867 8.25 9.918C8.67533 9.962 9.04933 9.99867 9.372 10.028C9.69467 10.0427 10.0027 10.05 10.296 10.05C10.5893 10.05 10.89 10.0427 11.198 10.028C11.5207 9.99867 11.8947 9.962 12.32 9.918ZM27.2498 24.746C27.4991 24.7167 27.7118 24.7827 27.8878 24.944C28.0638 25.1053 28.1518 25.3107 28.1518 25.56C28.1518 25.7947 28.0638 25.9927 27.8878 26.154C27.7118 26.33 27.4991 26.4033 27.2498 26.374C27.0444 26.3447 26.8244 26.308 26.5898 26.264C26.3551 26.2347 26.1278 26.2127 25.9078 26.198C25.5411 26.1833 25.2258 26.0513 24.9618 25.802C24.7124 25.5527 24.5878 25.2447 24.5878 24.878V24.57C24.5878 24.482 24.5584 24.4307 24.4998 24.416C24.4558 24.3867 24.4044 24.4087 24.3458 24.482C23.9058 25.0393 23.3998 25.494 22.8278 25.846C22.2558 26.198 21.6031 26.374 20.8698 26.374C19.8578 26.374 18.9704 26.11 18.2078 25.582C17.8851 25.3473 17.5624 25.0027 17.2398 24.548C16.9318 24.0787 16.7778 23.4627 16.7778 22.7V16.386C16.7778 16.2687 16.7264 16.21 16.6238 16.21C16.4478 16.21 16.2718 16.2247 16.0958 16.254C15.9344 16.2687 15.7731 16.276 15.6118 16.276C15.4064 16.276 15.2304 16.2027 15.0838 16.056C14.9371 15.9093 14.8638 15.726 14.8638 15.506C14.8638 15.286 14.9444 15.1027 15.1058 14.956C15.2671 14.7947 15.4578 14.7287 15.6778 14.758C16.0151 14.7873 16.2791 14.8093 16.4698 14.824C16.6751 14.824 16.8878 14.8313 17.1078 14.846C17.4744 14.846 17.7824 14.978 18.0318 15.242C18.2958 15.4913 18.4278 15.7993 18.4278 16.166V22.7C18.4278 23.184 18.5304 23.5653 18.7358 23.844C18.9411 24.108 19.1904 24.306 19.4838 24.438C19.7771 24.57 20.0558 24.6507 20.3198 24.68C20.5838 24.7093 20.7671 24.724 20.8698 24.724C21.6031 24.724 22.2778 24.4893 22.8938 24.02C23.5244 23.536 24.0671 22.9347 24.5218 22.216C24.5658 22.128 24.5878 22.0473 24.5878 21.974V16.386C24.5878 16.2687 24.5364 16.21 24.4338 16.21C24.2724 16.21 24.0964 16.2247 23.9058 16.254C23.7298 16.2687 23.5684 16.276 23.4218 16.276C23.2164 16.276 23.0404 16.2027 22.8938 16.056C22.7471 15.9093 22.6738 15.726 22.6738 15.506C22.6738 15.286 22.7544 15.1027 22.9158 14.956C23.0771 14.7947 23.2678 14.7287 23.4878 14.758C23.8251 14.7873 24.0891 14.8093 24.2798 14.824C24.4851 14.824 24.6978 14.8313 24.9178 14.846C25.2844 14.846 25.5924 14.978 25.8418 15.242C26.1058 15.4913 26.2378 15.7993 26.2378 16.166V24.68C26.2378 24.7973 26.2964 24.856 26.4138 24.856C26.5604 24.856 26.6998 24.8413 26.8318 24.812C26.9638 24.7827 27.1031 24.7607 27.2498 24.746ZM34.6144 24.856C34.8198 24.856 34.9958 24.9293 35.1424 25.076C35.2891 25.2227 35.3624 25.406 35.3624 25.626C35.3624 25.846 35.2818 26.0293 35.1204 26.176C34.9591 26.3373 34.7611 26.4107 34.5264 26.396C34.0718 26.352 33.7051 26.3153 33.4264 26.286C33.1478 26.2713 32.8764 26.264 32.6124 26.264C32.3044 26.264 32.0111 26.2713 31.7324 26.286C31.4684 26.3153 31.1238 26.352 30.6984 26.396C30.4638 26.4107 30.2658 26.3373 30.1044 26.176C29.9431 26.0293 29.8624 25.846 29.8624 25.626C29.8624 25.406 29.9358 25.2227 30.0824 25.076C30.2291 24.9293 30.4051 24.856 30.6104 24.856C30.7571 24.856 30.9111 24.8633 31.0724 24.878C31.2484 24.8927 31.4171 24.9073 31.5784 24.922H31.6224C31.7251 24.922 31.7764 24.8633 31.7764 24.746V11.436C31.7764 11.3187 31.7251 11.26 31.6224 11.26C31.4464 11.26 31.2704 11.2747 31.0944 11.304C30.9331 11.3187 30.7718 11.326 30.6104 11.326C30.4051 11.326 30.2291 11.2527 30.0824 11.106C29.9358 10.9593 29.8624 10.7833 29.8624 10.578C29.8624 10.3433 29.9431 10.1527 30.1044 10.006C30.2658 9.84467 30.4638 9.77867 30.6984 9.808C30.9184 9.82267 31.1531 9.84467 31.4024 9.874C31.6518 9.88867 31.8938 9.90333 32.1284 9.918C32.4804 9.93267 32.7884 10.0647 33.0524 10.314C33.3164 10.5633 33.4484 10.8713 33.4484 11.238V24.746C33.4484 24.8633 33.5071 24.922 33.6244 24.922C33.8004 24.922 33.9691 24.9147 34.1304 24.9C34.3064 24.8707 34.4678 24.856 34.6144 24.856ZM40.1821 12.822C39.8155 12.822 39.5001 12.6973 39.2361 12.448C38.9868 12.184 38.8621 11.8687 38.8621 11.502C38.8621 11.1207 38.9868 10.8053 39.2361 10.556C39.5001 10.3067 39.8155 10.182 40.1821 10.182C40.5488 10.182 40.8568 10.3067 41.1061 10.556C41.3701 10.8053 41.5021 11.1207 41.5021 11.502C41.5021 11.8687 41.3701 12.184 41.1061 12.448C40.8568 12.6973 40.5488 12.822 40.1821 12.822ZM38.2681 26.396C38.0188 26.4107 37.7988 26.33 37.6081 26.154C37.4321 25.9927 37.3441 25.7873 37.3441 25.538C37.3441 25.2887 37.4321 25.076 37.6081 24.9C37.7988 24.724 38.0188 24.6507 38.2681 24.68C38.4001 24.6947 38.5395 24.7093 38.6861 24.724C38.8475 24.7387 39.0015 24.7533 39.1481 24.768H39.1921C39.2948 24.768 39.3461 24.702 39.3461 24.57V16.562C39.3461 16.4447 39.2948 16.386 39.1921 16.386C38.8695 16.386 38.5615 16.408 38.2681 16.452C38.0188 16.4667 37.7988 16.3933 37.6081 16.232C37.4321 16.056 37.3441 15.8433 37.3441 15.594C37.3441 15.3447 37.4321 15.132 37.6081 14.956C37.7988 14.78 38.0188 14.7067 38.2681 14.736C38.6788 14.7653 38.9648 14.7947 39.1261 14.824C39.2875 14.8387 39.3975 14.846 39.4561 14.846C39.5295 14.846 39.6101 14.846 39.6981 14.846C40.0648 14.846 40.3728 14.978 40.6221 15.242C40.8861 15.4913 41.0181 15.7993 41.0181 16.166V24.57C41.0181 24.702 41.0695 24.768 41.1721 24.768C41.3335 24.768 41.4875 24.7607 41.6341 24.746C41.7955 24.7167 41.9495 24.6947 42.0961 24.68C42.3455 24.6507 42.5581 24.724 42.7341 24.9C42.9101 25.076 42.9981 25.2887 42.9981 25.538C42.9981 25.7873 42.9101 25.9927 42.7341 26.154C42.5581 26.33 42.3455 26.4107 42.0961 26.396C41.8028 26.3667 41.4875 26.3373 41.1501 26.308C40.8128 26.2787 40.4901 26.264 40.1821 26.264C39.8741 26.264 39.5515 26.2787 39.2141 26.308C38.8768 26.3373 38.5615 26.3667 38.2681 26.396ZM54.9601 24.702C55.1801 24.702 55.3635 24.79 55.5101 24.966C55.6715 25.1273 55.7521 25.318 55.7521 25.538C55.7521 25.802 55.6568 26.0147 55.4661 26.176C55.2755 26.352 55.0555 26.418 54.8061 26.374C54.6155 26.33 54.4101 26.2933 54.1901 26.264C53.9701 26.2347 53.7501 26.2127 53.5301 26.198C53.2368 26.198 52.9728 26.11 52.7381 25.934C52.5035 25.758 52.3421 25.5307 52.2541 25.252C52.2101 25.12 52.1368 25.098 52.0341 25.186C51.5355 25.5673 50.9928 25.8607 50.4061 26.066C49.8195 26.2713 49.1228 26.374 48.3161 26.374C47.3481 26.374 46.5415 26.0953 45.8961 25.538C45.2508 24.966 44.9281 24.2253 44.9281 23.316C44.9281 22.2747 45.2948 21.424 46.0281 20.764C46.7615 20.104 47.7295 19.774 48.9321 19.774C49.3868 19.774 49.8708 19.8253 50.3841 19.928C50.8975 20.0307 51.4255 20.192 51.9681 20.412C51.9828 20.412 51.9975 20.4193 52.0121 20.434C52.0268 20.434 52.0415 20.434 52.0561 20.434C52.1588 20.434 52.2101 20.3753 52.2101 20.258V19.378C52.2101 18.3367 51.9315 17.5593 51.3741 17.046C50.8315 16.5327 50.1935 16.276 49.4601 16.276C48.9761 16.276 48.4775 16.386 47.9641 16.606C47.8615 16.6647 47.8248 16.7527 47.8541 16.87C47.8981 17.002 47.9201 17.1267 47.9201 17.244C47.9201 17.5667 47.8028 17.86 47.5681 18.124C47.3481 18.388 47.0475 18.52 46.6661 18.52C46.2701 18.52 45.9548 18.388 45.7201 18.124C45.5001 17.8453 45.3901 17.53 45.3901 17.178C45.3901 16.8113 45.5221 16.474 45.7861 16.166C46.1821 15.7113 46.6735 15.3593 47.2601 15.11C47.8615 14.8607 48.4995 14.736 49.1741 14.736C50.3181 14.736 51.2275 14.9487 51.9021 15.374C52.5915 15.7993 53.0828 16.364 53.3761 17.068C53.6841 17.772 53.8381 18.542 53.8381 19.378V24.68C53.8381 24.7973 53.8968 24.856 54.0141 24.856C54.1755 24.856 54.3368 24.834 54.4981 24.79C54.6595 24.7313 54.8135 24.702 54.9601 24.702ZM48.3161 24.79C49.1668 24.7607 49.8781 24.6213 50.4501 24.372C51.0221 24.1227 51.5795 23.7193 52.1221 23.162C52.1808 23.0887 52.2101 23.008 52.2101 22.92V22.304C52.2101 22.2013 52.1661 22.128 52.0781 22.084C51.7701 21.908 51.3815 21.732 50.9121 21.556C50.4428 21.38 49.8121 21.292 49.0201 21.292C48.1108 21.292 47.4581 21.4973 47.0621 21.908C46.6808 22.3187 46.4901 22.788 46.4901 23.316C46.4901 23.668 46.5855 23.954 46.7761 24.174C46.9668 24.3793 47.2015 24.5333 47.4801 24.636C47.7735 24.7387 48.0521 24.79 48.3161 24.79ZM74.2809 9.918C74.5303 9.88867 74.7429 9.962 74.9189 10.138C75.0949 10.314 75.1829 10.5267 75.1829 10.776C75.1829 11.0253 75.0949 11.238 74.9189 11.414C74.7429 11.5753 74.5303 11.6487 74.2809 11.634C74.1343 11.6047 73.9729 11.59 73.7969 11.59C73.6356 11.5753 73.4669 11.5607 73.2909 11.546H73.2469C73.1443 11.546 73.0929 11.6047 73.0929 11.722V20.764C73.0929 21.9227 72.8436 22.9273 72.3449 23.778C71.8463 24.6287 71.2009 25.2813 70.4089 25.736C69.6316 26.1907 68.8176 26.418 67.9669 26.418C66.6763 26.418 65.6276 26.1613 64.8209 25.648C64.0143 25.12 63.4276 24.4967 63.0609 23.778C62.9143 23.4847 62.8043 23.1767 62.7309 22.854C62.6576 22.5167 62.6209 22.1867 62.6209 21.864C62.6209 21.2333 62.7529 20.6833 63.0169 20.214C63.2956 19.7447 63.6989 19.51 64.2269 19.51C64.6669 19.51 64.9969 19.6567 65.2169 19.95C65.4516 20.2287 65.5689 20.5367 65.5689 20.874C65.5689 21.1673 65.4809 21.446 65.3049 21.71C65.1436 21.9593 64.8943 22.1207 64.5569 22.194C64.4249 22.2233 64.3663 22.2967 64.3809 22.414C64.4396 22.7073 64.5863 23.0373 64.8209 23.404C65.0703 23.7707 65.4516 24.086 65.9649 24.35C66.4783 24.5993 67.1456 24.724 67.9669 24.724C68.6269 24.724 69.2136 24.548 69.7269 24.196C70.2403 23.844 70.6436 23.3747 70.9369 22.788C71.2449 22.1867 71.3989 21.512 71.3989 20.764V11.722C71.3989 11.6047 71.3476 11.546 71.2449 11.546C71.0836 11.546 70.9076 11.5533 70.7169 11.568C70.5409 11.5827 70.3723 11.6047 70.2109 11.634C69.9763 11.6487 69.7636 11.5753 69.5729 11.414C69.3969 11.238 69.3089 11.0253 69.3089 10.776C69.3089 10.5267 69.3969 10.314 69.5729 10.138C69.7636 9.962 69.9763 9.88867 70.2109 9.918C70.6363 9.962 71.0103 9.99867 71.3329 10.028C71.6556 10.0427 71.9636 10.05 72.2569 10.05C72.5503 10.05 72.8509 10.0427 73.1589 10.028C73.4816 9.99867 73.8556 9.962 74.2809 9.918ZM79.9927 12.822C79.626 12.822 79.3107 12.6973 79.0467 12.448C78.7974 12.184 78.6727 11.8687 78.6727 11.502C78.6727 11.1207 78.7974 10.8053 79.0467 10.556C79.3107 10.3067 79.626 10.182 79.9927 10.182C80.3594 10.182 80.6674 10.3067 80.9167 10.556C81.1807 10.8053 81.3127 11.1207 81.3127 11.502C81.3127 11.8687 81.1807 12.184 80.9167 12.448C80.6674 12.6973 80.3594 12.822 79.9927 12.822ZM78.0787 26.396C77.8294 26.4107 77.6094 26.33 77.4187 26.154C77.2427 25.9927 77.1547 25.7873 77.1547 25.538C77.1547 25.2887 77.2427 25.076 77.4187 24.9C77.6094 24.724 77.8294 24.6507 78.0787 24.68C78.2107 24.6947 78.35 24.7093 78.4967 24.724C78.658 24.7387 78.812 24.7533 78.9587 24.768H79.0027C79.1054 24.768 79.1567 24.702 79.1567 24.57V16.562C79.1567 16.4447 79.1054 16.386 79.0027 16.386C78.68 16.386 78.372 16.408 78.0787 16.452C77.8294 16.4667 77.6094 16.3933 77.4187 16.232C77.2427 16.056 77.1547 15.8433 77.1547 15.594C77.1547 15.3447 77.2427 15.132 77.4187 14.956C77.6094 14.78 77.8294 14.7067 78.0787 14.736C78.4894 14.7653 78.7754 14.7947 78.9367 14.824C79.098 14.8387 79.208 14.846 79.2667 14.846C79.34 14.846 79.4207 14.846 79.5087 14.846C79.8754 14.846 80.1834 14.978 80.4327 15.242C80.6967 15.4913 80.8287 15.7993 80.8287 16.166V24.57C80.8287 24.702 80.88 24.768 80.9827 24.768C81.144 24.768 81.298 24.7607 81.4447 24.746C81.606 24.7167 81.76 24.6947 81.9067 24.68C82.156 24.6507 82.3687 24.724 82.5447 24.9C82.7207 25.076 82.8087 25.2887 82.8087 25.538C82.8087 25.7873 82.7207 25.9927 82.5447 26.154C82.3687 26.33 82.156 26.4107 81.9067 26.396C81.6134 26.3667 81.298 26.3373 80.9607 26.308C80.6234 26.2787 80.3007 26.264 79.9927 26.264C79.6847 26.264 79.362 26.2787 79.0247 26.308C78.6874 26.3373 78.372 26.3667 78.0787 26.396ZM103.527 24.856C103.732 24.856 103.908 24.9293 104.055 25.076C104.201 25.2227 104.275 25.406 104.275 25.626C104.275 25.846 104.194 26.0293 104.033 26.176C103.871 26.3373 103.681 26.4107 103.461 26.396C103.006 26.352 102.647 26.3153 102.383 26.286C102.119 26.2713 101.869 26.264 101.635 26.264C101.371 26.264 101.107 26.2713 100.843 26.286C100.593 26.3153 100.249 26.352 99.8087 26.396C99.5887 26.4107 99.398 26.3373 99.2367 26.176C99.0753 26.0293 98.9947 25.846 98.9947 25.626C98.9947 25.406 99.068 25.2227 99.2147 25.076C99.3613 24.9293 99.5373 24.856 99.7427 24.856C99.8747 24.856 100.014 24.8633 100.161 24.878C100.307 24.8927 100.454 24.9073 100.601 24.922H100.645C100.747 24.922 100.799 24.8633 100.799 24.746V19.004C100.799 18.3147 100.696 17.7573 100.491 17.332C100.3 16.9067 100.058 16.65 99.7647 16.562C99.6033 16.5033 99.3907 16.474 99.1267 16.474C98.716 16.474 98.2027 16.6207 97.5867 16.914C96.9853 17.2073 96.2593 17.794 95.4087 18.674C95.3353 18.7473 95.2987 18.828 95.2987 18.916V24.746C95.2987 24.8633 95.35 24.922 95.4527 24.922C95.614 24.922 95.7753 24.9147 95.9367 24.9C96.098 24.8707 96.252 24.856 96.3987 24.856C96.604 24.856 96.78 24.9293 96.9267 25.076C97.0733 25.2227 97.1467 25.406 97.1467 25.626C97.1467 25.846 97.066 26.0293 96.9047 26.176C96.7433 26.3373 96.5453 26.4107 96.3107 26.396C95.856 26.352 95.4967 26.3153 95.2327 26.286C94.9687 26.2713 94.7267 26.264 94.5067 26.264C94.228 26.264 93.964 26.2713 93.7147 26.286C93.4653 26.3153 93.1207 26.352 92.6807 26.396C92.446 26.4107 92.248 26.3373 92.0867 26.176C91.9253 26.0293 91.8447 25.846 91.8447 25.626C91.8447 25.406 91.918 25.2227 92.0647 25.076C92.2113 24.9293 92.3873 24.856 92.5927 24.856C92.7247 24.856 92.8713 24.8633 93.0327 24.878C93.194 24.8927 93.348 24.9073 93.4947 24.922H93.5387C93.6413 24.922 93.6927 24.8633 93.6927 24.746V19.004C93.6927 17.5667 93.3847 16.7453 92.7687 16.54C92.6953 16.5107 92.6147 16.4887 92.5267 16.474C92.4387 16.4593 92.3433 16.452 92.2407 16.452C91.83 16.452 91.3093 16.606 90.6787 16.914C90.048 17.222 89.3 17.8233 88.4347 18.718C88.3613 18.7913 88.3247 18.872 88.3247 18.96V24.746C88.3247 24.8633 88.376 24.922 88.4787 24.922C88.64 24.922 88.794 24.9147 88.9407 24.9C89.102 24.8707 89.256 24.856 89.4027 24.856C89.608 24.856 89.784 24.9293 89.9307 25.076C90.0773 25.2227 90.1507 25.406 90.1507 25.626C90.1507 25.846 90.07 26.0293 89.9087 26.176C89.7473 26.3373 89.5567 26.4107 89.3367 26.396C88.882 26.352 88.5227 26.3153 88.2587 26.286C87.9947 26.2713 87.7453 26.264 87.5107 26.264C87.2467 26.264 86.9827 26.2713 86.7187 26.286C86.4693 26.3153 86.1247 26.352 85.6847 26.396C85.4647 26.4107 85.274 26.3373 85.1127 26.176C84.9513 26.0293 84.8707 25.846 84.8707 25.626C84.8707 25.406 84.944 25.2227 85.0907 25.076C85.2373 24.9293 85.4133 24.856 85.6187 24.856C85.736 24.856 85.8753 24.8633 86.0367 24.878C86.198 24.8927 86.352 24.9073 86.4987 24.922H86.5427C86.6453 24.922 86.6967 24.8633 86.6967 24.746V16.43C86.6967 16.3127 86.6453 16.254 86.5427 16.254C86.396 16.254 86.2347 16.2613 86.0587 16.276C85.8973 16.2907 85.736 16.3127 85.5747 16.342C85.34 16.3713 85.1347 16.3053 84.9587 16.144C84.7827 15.9827 84.6947 15.7847 84.6947 15.55C84.6947 15.3153 84.7827 15.1173 84.9587 14.956C85.1347 14.7947 85.34 14.7287 85.5747 14.758C85.912 14.8167 86.286 14.8607 86.6967 14.89H87.5107C87.7453 14.89 87.936 14.9707 88.0827 15.132C88.244 15.2787 88.3247 15.4693 88.3247 15.704V16.54C88.3247 16.628 88.3467 16.6793 88.3907 16.694C88.4493 16.7087 88.508 16.6867 88.5667 16.628C89.256 15.9827 89.9233 15.506 90.5687 15.198C91.2287 14.89 91.8373 14.736 92.3947 14.736C92.8493 14.736 93.2967 14.8387 93.7367 15.044C94.074 15.2053 94.3453 15.44 94.5507 15.748C94.7707 16.056 94.932 16.3933 95.0347 16.76C95.0787 16.936 95.1667 16.958 95.2987 16.826C96.032 16.0927 96.736 15.5647 97.4107 15.242C98.0853 14.9047 98.7233 14.736 99.3247 14.736C99.838 14.736 100.315 14.846 100.755 15.066C101.224 15.286 101.576 15.6307 101.811 16.1C102.06 16.5547 102.229 17.046 102.317 17.574C102.405 18.102 102.449 18.5787 102.449 19.004V24.746C102.449 24.8633 102.507 24.922 102.625 24.922C102.786 24.922 102.94 24.9147 103.087 24.9C103.233 24.8707 103.38 24.856 103.527 24.856ZM113.572 10.754L111.416 12.624C111.284 12.7267 111.152 12.778 111.02 12.778C110.873 12.778 110.741 12.7193 110.624 12.602C110.506 12.4847 110.448 12.3453 110.448 12.184C110.448 12.052 110.499 11.92 110.602 11.788L112.516 9.632C112.677 9.456 112.868 9.368 113.088 9.368C113.293 9.368 113.476 9.44867 113.638 9.61C113.784 9.75667 113.858 9.93267 113.858 10.138C113.858 10.402 113.762 10.6073 113.572 10.754ZM111.856 26.374C110.8 26.374 109.839 26.11 108.974 25.582C108.108 25.054 107.419 24.35 106.906 23.47C106.407 22.59 106.158 21.622 106.158 20.566C106.158 19.4953 106.392 18.52 106.862 17.64C107.346 16.76 107.998 16.056 108.82 15.528C109.656 15 110.594 14.736 111.636 14.736C113.176 14.736 114.415 15.22 115.354 16.188C116.292 17.1413 116.842 18.4027 117.004 19.972C117.048 20.3387 116.938 20.654 116.674 20.918C116.424 21.1673 116.116 21.292 115.75 21.292H108.05C107.903 21.292 107.844 21.3653 107.874 21.512C108.006 22.1573 108.262 22.7293 108.644 23.228C109.025 23.7267 109.494 24.1153 110.052 24.394C110.609 24.6727 111.21 24.812 111.856 24.812C112.413 24.812 112.941 24.6947 113.44 24.46C113.953 24.2107 114.393 23.8807 114.76 23.47C114.98 23.25 115.214 23.14 115.464 23.14C115.625 23.14 115.779 23.1913 115.926 23.294C116.16 23.4553 116.278 23.6753 116.278 23.954C116.278 24.1447 116.219 24.2987 116.102 24.416C115.574 25.032 114.936 25.516 114.188 25.868C113.454 26.2053 112.677 26.374 111.856 26.374ZM107.874 19.488C107.874 19.5027 107.866 19.5173 107.852 19.532C107.852 19.532 107.852 19.5393 107.852 19.554C107.852 19.6567 107.918 19.708 108.05 19.708H115.112C115.258 19.708 115.317 19.6347 115.288 19.488C115.097 18.4613 114.708 17.662 114.122 17.09C113.535 16.5033 112.706 16.21 111.636 16.21C110.609 16.21 109.766 16.5107 109.106 17.112C108.446 17.7133 108.035 18.5053 107.874 19.488ZM130.503 24.856C130.708 24.856 130.884 24.9293 131.031 25.076C131.177 25.2227 131.251 25.406 131.251 25.626C131.251 25.846 131.17 26.0293 131.009 26.176C130.847 26.3227 130.657 26.3887 130.437 26.374C129.982 26.33 129.623 26.3007 129.359 26.286C129.095 26.2713 128.845 26.264 128.611 26.264C128.347 26.264 128.083 26.2713 127.819 26.286C127.569 26.3153 127.225 26.3447 126.785 26.374C126.565 26.3887 126.374 26.3227 126.213 26.176C126.051 26.0293 125.971 25.846 125.971 25.626C125.971 25.406 126.044 25.2227 126.191 25.076C126.337 24.9293 126.513 24.856 126.719 24.856C126.851 24.856 126.99 24.8633 127.137 24.878C127.283 24.8927 127.43 24.9073 127.577 24.922H127.621C127.723 24.922 127.775 24.8633 127.775 24.746V18.63C127.775 17.9847 127.665 17.4713 127.445 17.09C127.239 16.694 126.836 16.496 126.235 16.496C125.736 16.496 125.149 16.6353 124.475 16.914C123.8 17.1927 123.015 17.7427 122.121 18.564C122.047 18.6373 122.011 18.7253 122.011 18.828V24.746C122.011 24.8633 122.062 24.922 122.165 24.922C122.326 24.922 122.48 24.9147 122.627 24.9C122.773 24.8707 122.92 24.856 123.067 24.856C123.272 24.856 123.448 24.9293 123.595 25.076C123.741 25.2227 123.815 25.406 123.815 25.626C123.815 25.846 123.734 26.0293 123.573 26.176C123.411 26.3227 123.221 26.3887 123.001 26.374C122.546 26.33 122.187 26.3007 121.923 26.286C121.659 26.2713 121.409 26.264 121.175 26.264C120.911 26.264 120.647 26.2713 120.383 26.286C120.133 26.3153 119.789 26.3447 119.349 26.374C119.129 26.3887 118.938 26.3227 118.777 26.176C118.615 26.0293 118.535 25.846 118.535 25.626C118.535 25.406 118.608 25.2227 118.755 25.076C118.901 24.9293 119.077 24.856 119.283 24.856C119.429 24.856 119.576 24.8633 119.723 24.878C119.869 24.8927 120.016 24.9073 120.163 24.922H120.207C120.309 24.922 120.361 24.8633 120.361 24.746V16.386C120.361 16.2687 120.309 16.21 120.207 16.21C120.031 16.21 119.862 16.2247 119.701 16.254C119.554 16.2687 119.4 16.276 119.239 16.276C119.033 16.276 118.857 16.2027 118.711 16.056C118.564 15.8947 118.491 15.7113 118.491 15.506C118.491 15.286 118.571 15.0953 118.733 14.934C118.894 14.7727 119.085 14.7067 119.305 14.736C119.51 14.7507 119.73 14.7727 119.965 14.802C120.214 14.8167 120.456 14.8313 120.691 14.846C121.057 14.8607 121.365 15 121.615 15.264C121.879 15.5133 122.011 15.8213 122.011 16.188V16.716C122.011 16.804 122.033 16.8553 122.077 16.87C122.135 16.8847 122.194 16.8627 122.253 16.804C123.074 16.0267 123.829 15.4913 124.519 15.198C125.223 14.89 125.883 14.736 126.499 14.736C127.261 14.736 127.855 14.9193 128.281 15.286C128.706 15.638 129.007 16.1147 129.183 16.716C129.359 17.3027 129.447 17.948 129.447 18.652V24.746C129.447 24.8633 129.505 24.922 129.623 24.922C129.784 24.922 129.931 24.9147 130.063 24.9C130.209 24.8707 130.356 24.856 130.503 24.856ZM141.981 21.292H134.281C134.135 21.292 134.076 21.3653 134.105 21.512C134.237 22.1573 134.494 22.7293 134.875 23.228C135.257 23.7267 135.726 24.1153 136.283 24.394C136.841 24.6727 137.442 24.812 138.087 24.812C138.645 24.812 139.173 24.6947 139.671 24.46C140.185 24.2107 140.625 23.8807 140.991 23.47C141.211 23.25 141.446 23.14 141.695 23.14C141.857 23.14 142.011 23.1913 142.157 23.294C142.392 23.4553 142.509 23.6753 142.509 23.954C142.509 24.1447 142.451 24.2987 142.333 24.416C141.805 25.032 141.167 25.516 140.419 25.868C139.686 26.2053 138.909 26.374 138.087 26.374C137.031 26.374 136.071 26.11 135.205 25.582C134.355 25.054 133.673 24.35 133.159 23.47C132.661 22.59 132.411 21.622 132.411 20.566C132.411 19.4953 132.646 18.52 133.115 17.64C133.585 16.76 134.23 16.056 135.051 15.528C135.887 15 136.826 14.736 137.867 14.736C138.894 14.736 139.789 14.956 140.551 15.396C141.314 15.836 141.923 16.452 142.377 17.244C142.847 18.0213 143.133 18.9307 143.235 19.972C143.279 20.3387 143.169 20.654 142.905 20.918C142.656 21.1673 142.348 21.292 141.981 21.292ZM137.867 16.21C136.841 16.21 135.997 16.5107 135.337 17.112C134.677 17.7133 134.267 18.5053 134.105 19.488C134.105 19.5027 134.098 19.5173 134.083 19.532C134.083 19.532 134.083 19.5393 134.083 19.554C134.083 19.6567 134.149 19.708 134.281 19.708H141.343C141.505 19.708 141.563 19.6347 141.519 19.488C141.343 18.4613 140.955 17.662 140.353 17.09C139.767 16.5033 138.938 16.21 137.867 16.21ZM153.529 26.198H146.291C146.042 26.198 145.836 26.11 145.675 25.934C145.514 25.758 145.433 25.5527 145.433 25.318C145.433 25.23 145.448 25.142 145.477 25.054C145.506 24.9513 145.55 24.8633 145.609 24.79L151.615 16.804C151.644 16.7453 151.659 16.7087 151.659 16.694C151.659 16.606 151.6 16.562 151.483 16.562H147.061C146.944 16.562 146.885 16.6133 146.885 16.716C146.885 16.8627 146.892 17.024 146.907 17.2C146.936 17.3613 146.958 17.5153 146.973 17.662C147.002 17.9113 146.929 18.1313 146.753 18.322C146.577 18.498 146.364 18.586 146.115 18.586C145.866 18.586 145.653 18.498 145.477 18.322C145.316 18.1313 145.242 17.9113 145.257 17.662C145.286 17.442 145.308 17.2073 145.323 16.958C145.352 16.7087 145.374 16.4593 145.389 16.21C145.404 15.8433 145.536 15.5353 145.785 15.286C146.034 15.022 146.342 14.89 146.709 14.89H153.309C153.573 14.89 153.786 14.9853 153.947 15.176C154.108 15.352 154.189 15.5573 154.189 15.792C154.189 15.9533 154.13 16.1293 154.013 16.32L147.985 24.306C147.956 24.3647 147.941 24.4013 147.941 24.416C147.941 24.504 148 24.548 148.117 24.548H153.155C153.272 24.548 153.331 24.4967 153.331 24.394C153.331 24.0567 153.309 23.734 153.265 23.426C153.25 23.1767 153.324 22.964 153.485 22.788C153.661 22.5973 153.874 22.502 154.123 22.502C154.372 22.502 154.578 22.5973 154.739 22.788C154.915 22.964 154.988 23.1767 154.959 23.426C154.944 23.646 154.922 23.8807 154.893 24.13C154.878 24.3793 154.864 24.6287 154.849 24.878C154.834 25.2447 154.695 25.56 154.431 25.824C154.182 26.0733 153.881 26.198 153.529 26.198Z" fill="#4F2D1A"/>
<path d="M182.021 3.19049C178.12 0.866446 172.269 2.35742 169.587 4.15884C162.956 8.61325 161.786 15.6983 162.029 18.6841C162.614 26.4309 167.312 30.6271 169.587 31.7568C176.023 35.4366 182.996 33.7742 185.678 32.4831C191.334 29.7717 193.561 22.7996 193.967 19.6524C194.357 14.8107 191.204 14.2458 189.579 14.5686C184.215 15.779 181.289 16.2632 179.583 15.0528C175.682 10.5984 179.583 8.03224 181.533 6.8218C184.703 5.12719 182.59 3.67466 182.021 3.19049Z" fill="#D9D9D9" stroke="black"/>
<circle cx="173.5" cy="9.5" r="3" fill="#F0D442" stroke="black"/>
<circle cx="168.5" cy="16.5" r="3" fill="#F373A1" stroke="black"/>
<circle cx="180.5" cy="27.5" r="3" fill="#73AEF3" stroke="black"/>
<circle cx="171.5" cy="25.5" r="3" fill="#0AB884" stroke="black"/>
<path d="M199.392 13.17C196.761 12.0699 188.157 25.1578 184.184 31.8392L185.829 33.2469C191.446 27.013 202.023 14.2701 199.392 13.17Z" fill="#E8A367" stroke="black"/>
<path d="M184.189 31.6646C184.63 32.0227 185.33 32.6597 185.994 33.2231C185.087 38.9106 180.343 38.0096 177.992 36.7982C179.178 36.466 181.109 35.4541 181.534 33.5706C181.875 32.056 183.445 31.6686 184.189 31.6646Z" fill="#56443E"/>
<path d="M185.994 33.2231L186.487 33.3017L186.532 33.0239L186.317 32.8418L185.994 33.2231ZM184.189 31.6646L184.504 31.2765L184.365 31.1636L184.186 31.1646L184.189 31.6646ZM181.534 33.5706L182.021 33.6807L182.021 33.6807L181.534 33.5706ZM177.992 36.7982L177.857 36.3167C177.659 36.3722 177.516 36.5431 177.495 36.7476C177.474 36.9521 177.58 37.1485 177.763 37.2426L177.992 36.7982ZM186.317 32.8418C185.681 32.3024 184.944 31.6339 184.504 31.2765L183.874 32.0527C184.316 32.4114 184.978 33.0171 185.67 33.6043L186.317 32.8418ZM184.186 31.1646C183.746 31.167 183.084 31.2794 182.472 31.6117C181.847 31.9507 181.255 32.5323 181.046 33.4605L182.021 33.6807C182.154 33.0943 182.517 32.7249 182.949 32.4906C183.393 32.2495 183.888 32.1662 184.192 32.1646L184.186 31.1646ZM181.046 33.4605C180.866 34.2563 180.365 34.8884 179.742 35.3709C179.117 35.8547 178.399 36.1649 177.857 36.3167L178.127 37.2796C178.771 37.0993 179.611 36.7375 180.354 36.1614C181.099 35.5841 181.776 34.7684 182.021 33.6807L181.046 33.4605ZM177.763 37.2426C178.99 37.875 180.887 38.4544 182.637 38.0871C183.527 37.9005 184.379 37.4685 185.068 36.6806C185.754 35.8965 186.25 34.7915 186.487 33.3017L185.5 33.1444C185.284 34.4984 184.847 35.4136 184.315 36.0223C183.786 36.6273 183.136 36.9607 182.432 37.1084C180.996 37.4096 179.345 36.9327 178.221 36.3537L177.763 37.2426Z" fill="black"/>
</svg>
